:SAMPLES-PER-SECOND 30
:FULLY-SPECIFIED
:DEGREES
129
root  -0.0182077 36.3282 -0.154478 10.5328 -50.5819 -14.0489
RightUpLeg  0.95342 -21.838 -24.1887
RightLeg  34.4972 -12.9153 -9.85379
RightFoot  6.32381 -3.12801 20.4626
RightToes  -1.16417e-010 0 -3.6325e-017
Spine  20.9099 5.63915 12.3492
Spine1  -17.6099 7.65578 -15.9081
HEad  -19.0737 -50.2647 15.0777
LeftShoulder1  1.86633 -4.80591 -15.6869
LeftArm  12.6213 41.7316 -52.8571
LeftForeArm  52.8485 -67.9787 -22.2496
LeftHand  -0.297335 -3.99596 3.94916
RightShoulder  0.661979 -13.061 -17.4512
RightArm  -86.5755 17.8241 -14.5036
RightForeArm  55.0569 68.7713 23.4724
RightHand  -1.26102 -1.3607 -35.3443
LeftUpLeg  -27.6965 15.6818 5.6596
LeftLeg  51.4482 -1.41799 -1.42433
LeftFoot  -24.0647 0.189485 0.452544
LeftToes  6.91183e-011 3.39355e-011 2.1261e-011
130
root  -0.524773 36.0334 -0.379768 10.3017 -41.8467 -12.4178
RightUpLeg  11.3012 -19.495 -28.1779
RightLeg  21.2379 -17.81 -7.89189
RightFoot  19.4651 -5.23715 18.9723
RightToes  -1.16417e-010 0 -3.6325e-017
Spine  19.277 5.28412 12.0614
Spine1  -17.0256 7.19739 -17.6876
HEad  -26.523 -58.0538 23.8457
LeftShoulder1  1.84252 -5.45262 -13.6186
LeftArm  14.1116 47.0737 -49.4281
LeftForeArm  52.7796 -72.6109 -30.9094
LeftHand  0.0762702 -3.26965 -0.735825
RightShoulder  1.38954 -15.8638 -22.2842
RightArm  -83.5437 13.7 -23.7281
RightForeArm  37.4413 45.2412 8.38789
RightHand  -0.850261 -1.10953 -22.9755
LeftUpLeg  -31.2793 11.8842 5.87528
LeftLeg  53.613 -3.16537 -4.11763
LeftFoot  -26.3928 0.115081 -0.331475
LeftToes  6.91183e-011 3.39355e-011 2.1261e-011
131
root  -0.908276 35.694 -0.551778 11.9955 -37.2542 -12.7688
RightUpLeg  15.6618 -14.6646 -27.2085
RightLeg  12.0051 -11.9775 -3.20137
RightFoot  28.783 -9.45239 26.091
RightToes  -1.16417e-010 0 -3.6325e-017
Spine  18.209 5.46165 14.2974
Spine1  -17.0102 7.69814 -21.7977
HEad  -32.482 -62.2668 30.932
LeftShoulder1  1.82971 -6.24972 -11.6163
LeftArm  17.8947 49.2275 -44.0638
LeftForeArm  63.3047 -76.817 -43.4984
LeftHand  0.181434 -2.75253 -2.3482
RightShoulder  2.08403 -17.5188 -26.3047
RightArm  -72.9176 14.1488 -32.6979
RightForeArm  26.9274 19.7206 2.46869
RightHand  -0.238579 -1.998 -5.75602
LeftUpLeg  -34.9317 10.6322 7.17554
LeftLeg  56.1634 -4.74529 -7.0461
LeftFoot  -27.4372 0.0395731 -0.890124
LeftToes  6.91183e-011 3.39355e-011 2.1261e-011
132
root  -1.02582 35.3948 -0.766246 13.8046 -37.778 -13.8157
RightUpLeg  13.6856 -10.3135 -25.1898
RightLeg  10.5292 -7.40851 -2.64818
RightFoot  33.6252 -12.7918 31.0224
RightToes  -1.16417e-010 0 -3.6325e-017
Spine  17.9777 5.50244 16.7897
Spine1  -16.8423 8.26655 -27.1497
HEad  -33.3207 -61.761 33.9409
LeftShoulder1  1.72554 -6.70116 -9.54331
LeftArm  20.8495 50.4908 -41.5808
LeftForeArm  71.346 -78.2139 -50.324
LeftHand  0.0690598 -1.78284 -0.952378
RightShoulder  2.44554 -17.8745 -28.6401
RightArm  -56.4905 18.2727 -36.6841
RightForeArm  12.1575 1.56249 -0.308792
RightHand  -0.0874985 -5.03632 17.1984
LeftUpLeg  -37.1891 11.5653 8.142
LeftLeg  57.9895 -4.41999 -7.01194
LeftFoot  -27.7045 0.0505274 -0.811052
LeftToes  6.91183e-011 3.39355e-011 2.1261e-011
133
root  -0.85463 35.2098 -0.901927 13.8015 -41.3935 -14.1392
RightUpLeg  9.5168 -9.73656 -26.2639
RightLeg  15.3657 -10.1488 -3.65217
RightFoot  34.5968 -11.7834 27.925
RightToes  -1.16417e-010 0 -3.6325e-017
Spine  18.5773 4.70071 16.1458
Spine1  -16.2388 7.72854 -28.3602
HEad  -29.8763 -57.8986 32.318
LeftShoulder1  1.58465 -6.44167 -8.46974
LeftArm  19.1868 51.7172 -43.3697
LeftForeArm  68.9076 -77.9295 -49.2146
LeftHand  0.0311721 -1.24036 -0.319016
RightShoulder  2.35895 -17.5268 -28.4184
RightArm  -56.1069 21.028 -35.6662
RightForeArm  7.74027 -1.52201 0.132091
RightHand  -0.800351 -8.02559 36.0386
LeftUpLeg  -36.8608 11.6756 7.61021
LeftLeg  58.5739 -1.4193 -1.92411
LeftFoot  -28.2045 0.222999 0.357789
LeftToes  6.91183e-011 3.39355e-011 2.1261e-011
